PathFileType	4	(X/Y/Z)	/Users/itak/Documents/Research/Walk-IL/dataset/trc/00142_00007.trc
DataRate	CameraRate	NumFrames	NumMarkers	Units	OrigDataRate	OrigDataStartFrame	OrigNumFrames
100.000000	100.000000	4	53	mm	100.000000	405	540
Frame#	Time	RPSI			LPSI			L3			STRN			T10			C7			CLAV			RBAK			LBAK			LSHO			LUPA			LAEL			LAOL			LWTS			LWPS			LFRA			LIFD			LHPS			LHTS			RSHO			RUPA			RAEL			RAOL			RWTS			RWPS			RFRA			RIFD			RHTS			RHPS			RBHD			LFHD			RFHD			LBHD			LHIP			RHIP			RASI			LASI			LKNE			LTHI			LANK			LTIP			LTOE			LMT1			LMT5			LHEE			RKNE			RTHI			RANK			RTIP			RTOE			RMT1			RMT5			RHEE			
		X1	Y1	Z1	X2	Y2	Z2	X3	Y3	Z3	X4	Y4	Z4	X5	Y5	Z5	X6	Y6	Z6	X7	Y7	Z7	X8	Y8	Z8	X9	Y9	Z9	X10	Y10	Z10	X11	Y11	Z11	X12	Y12	Z12	X13	Y13	Z13	X14	Y14	Z14	X15	Y15	Z15	X16	Y16	Z16	X17	Y17	Z17	X18	Y18	Z18	X19	Y19	Z19	X20	Y20	Z20	X21	Y21	Z21	X22	Y22	Z22	X23	Y23	Z23	X24	Y24	Z24	X25	Y25	Z25	X26	Y26	Z26	X27	Y27	Z27	X28	Y28	Z28	X29	Y29	Z29	X30	Y30	Z30	X31	Y31	Z31	X32	Y32	Z32	X33	Y33	Z33	X34	Y34	Z34	X35	Y35	Z35	X36	Y36	Z36	X37	Y37	Z37	X38	Y38	Z38	X39	Y39	Z39	X40	Y40	Z40	X41	Y41	Z41	X42	Y42	Z42	X43	Y43	Z43	X44	Y44	Z44	X45	Y45	Z45	X46	Y46	Z46	X47	Y47	Z47	X48	Y48	Z48	X49	Y49	Z49	X50	Y50	Z50	X51	Y51	Z51	X52	Y52	Z52	X53	Y53	Z53	

406	4.05	796.7964477539062	1097.15234375	383.0200500488281	662.329345703125	1102.292602539062	365.3052062988281	724.1799926757812	1132.795288085938	381.4162902832031	757.3155517578125	1343.886596679688	177.4991149902344	709.2657470703125	1280.66748046875	428.3299865722656	695.2997436523438	1574.472290039062	405.2184143066406	745.970703125	1475.885864257812	221.2565765380859	770.8038330078125	1385.880126953125	466.4990844726562	593.3671875	1552.829345703125	385.9170532226562	548.455078125	1543.078002929688	285.3769226074219	480.2987670898438	1409.846923828125	269.169677734375	480.4350280761719	1197.939331054688	200.0950317382812	522.4158935546875	1169.039184570312	273.9668884277344	578.5948486328125	995.1502075195312	35.51847839355469	544.6199951171875	937.9786987304688	97.31330108642578	495.3988647460938	1093.438598632812	148.6210327148438	626.9107666015625	823.415771484375	-42.63243103027344	561.311279296875	879.4003295898438	44.17196273803711	583.2835693359375	917.6029663085938	-9.30694580078125	884.169189453125	1559.345825195312	389.0852661132812	941.9260864257812	1485.347412109375	419.3082275390625	968.3069458007812	1193.017456054688	427.4503173828125	874.6781616210938	1187.98046875	399.1823425292969	1017.204223632812	953.7734375	285.1644592285156	1020.4267578125	936.5784301757812	366.3504333496094	993.8997192382812	1121.40185546875	409.1905822753906	1024.54443359375	760.0064086914062	253.2032470703125	1038.553344726562	847.9823608398438	259.3416442871094	1041.237548828125	838.3260498046875	332.0804443359375	783.7630004882812	1760.606567382812	365.0853881835938	664.4635009765625	1804.857666015625	184.8022308349609	793.5327758789062	1820.301391601562	196.7586059570312	650.4402465820312	1750.752563476562	359.681884765625	561.85693359375	1019.641052246094	256.7544555664062	928.7326049804688	1008.593078613281	261.9095458984375	885.5598754882812	1086.322021484375	181.658447265625	619.2235717773438	1085.9697265625	154.7788543701172	620.976318359375	514.4786376953125	283.9853820800781	583.6595458984375	663.1572265625	281.02001953125	608.6242065429688	53.26302719116211	530.5108642578125	573.1138916015625	293.4046020507812	439.715576171875	773.0918579101562	30.7147216796875	358.5724792480469	757.518310546875	49.28435516357422	442.7566833496094	647.6101684570312	35.42505264282227	410.0930480957031	633.0011596679688	77.54428863525391	619.5519409179688	918.6675415039062	546.6387939453125	108.4032440185547	937.18310546875	811.3003540039062	185.3346557617188	932.8341674804688	25.41159820556641	64.00022888183594	937.8245239257812	412.9767456054688	94.63745880126953	870.4649047851562	72.72560119628906	-153.0151062011719	831.2710571289062	50.02248764038086	-98.29684448242188	948.6784057617188	43.3418083190918	-67.94092559814453	883.6965942382812	21.80397796630859	122.0687713623047	
407	4.06	801.176513671875	1098.04150390625	374.5768127441406	666.4193115234375	1102.64453125	358.2719421386719	728.424560546875	1133.458618164062	373.6796875	759.5200805664062	1344.7421875	169.9004821777344	713.7457275390625	1281.079833984375	421.1251220703125	699.177490234375	1574.894165039062	398.7331848144531	748.5067749023438	1476.602905273438	214.1816711425781	775.3535766601562	1386.229370117188	458.9317321777344	597.1098022460938	1553.128173828125	380.2323608398438	551.3748779296875	1543.336791992188	280.0152587890625	483.4917602539062	1409.878295898438	264.5189819335938	483.3482971191406	1197.5830078125	196.3719482421875	525.9246826171875	1169.33056640625	270.0961608886719	579.8131713867188	991.25927734375	34.83713531494141	545.386474609375	935.6427612304688	97.59963226318359	497.689697265625	1092.297607421875	146.3280944824219	626.7659912109375	817.6585693359375	-39.98831558227539	562.4317016601562	875.8167114257812	46.05782699584961	583.899658203125	912.8023681640625	-8.465546607971191	887.9432373046875	1559.911254882812	381.0974731445312	945.9442749023438	1485.9150390625	410.8699340820312	971.9215087890625	1193.599853515625	419.0383911132812	878.2164306640625	1188.648559570312	391.1380310058594	1019.956665039062	954.0348510742188	277.0093078613281	1023.474304199219	937.0104370117188	358.2281494140625	997.37109375	1121.950317382812	400.8059387207031	1026.82568359375	760.1788330078125	245.4647674560547	1041.0126953125	848.144287109375	251.3381042480469	1043.992797851562	838.6476440429688	324.0884094238281	786.9449462890625	1761.282470703125	358.2473449707031	666.8875732421875	1805.596313476562	178.4758605957031	796.0131225585938	1821.035034179688	189.9282531738281	653.6154174804688	1751.416870117188	353.4107055664062	565.2748413085938	1019.887084960938	250.8503112792969	932.1807250976562	1010.017028808594	252.1680755615234	887.85791015625	1087.330322265625	172.4529418945312	621.4666137695312	1086.591430664062	148.3042297363281	622.8087768554688	514.667236328125	276.9441833496094	586.1064453125	663.556884765625	274.437744140625	609.0184936523438	55.66353225708008	529.7412719726562	574.4749145507812	295.7281494140625	436.122802734375	773.039794921875	30.65080261230469	358.1737976074219	757.4562377929688	50.15762329101562	441.8810729980469	647.7575073242188	35.52962493896484	409.717529296875	633.6264038085938	81.88236236572266	618.177978515625	920.0682373046875	546.951416015625	100.981803894043	939.648681640625	812.2438354492188	176.1236114501953	933.2831420898438	25.38811492919922	62.95889663696289	938.939453125	413.0657043457031	88.05542755126953	869.1148071289062	67.52994537353516	-155.5729827880859	830.9019775390625	46.25286865234375	-99.79196929931641	948.6611328125	41.52149200439453	-69.70821380615234	884.32568359375	22.83372688293457	121.2513427734375	
408	4.07	805.5361938476562	1099.047241210938	366.0789184570312	670.518310546875	1103.115112304688	351.1995239257812	732.66943359375	1134.333984375	365.9268493652344	761.6288452148438	1345.79833984375	162.2862243652344	718.213134765625	1281.678466796875	413.9144897460938	703.0811767578125	1575.513671875	392.2686157226562	750.987060546875	1477.518920898438	207.0888671875	779.9288940429688	1386.765869140625	451.2945251464844	600.855224609375	1553.632934570312	374.5545043945312	554.287109375	1543.843017578125	274.7018432617188	486.670166015625	1410.16259765625	259.92529296875	486.28955078125	1197.498657226562	192.7244873046875	529.5297241210938	1169.9189453125	266.2575378417969	580.8045654296875	987.4303588867188	34.47800445556641	546.0635986328125	933.4876098632812	98.29949188232422	499.9099731445312	1091.422607421875	144.2176055908203	626.27978515625	811.8640747070312	-36.67473983764648	563.1011962890625	872.4083251953125	48.36783218383789	584.2826538085938	908.0095825195312	-7.177778720855713	891.7080078125	1560.667358398438	373.028076171875	949.9761352539062	1486.704467773438	402.3155822753906	975.5049438476562	1194.399536132812	410.5479431152344	881.724853515625	1189.543090820312	383.0339965820312	1022.6689453125	954.4953002929688	268.7869567871094	1026.489990234375	937.6483764648438	350.03271484375	1000.818237304688	1122.713745117188	392.3446655273438	1028.999145507812	760.5335693359375	237.680908203125	1043.402465820312	848.49169921875	243.2767333984375	1046.69189453125	839.1644287109375	316.0339965820312	790.10546875	1762.131591796875	351.3961181640625	669.2678833007812	1806.495727539062	172.1600494384766	798.4420776367188	1821.934204101562	183.0926513671875	656.7711181640625	1752.2431640625	347.1503295898438	568.7332763671875	1020.261657714844	244.9472503662109	935.6473999023438	1011.682922363281	242.3722839355469	890.1260375976562	1088.631958007812	163.2012329101562	623.7056884765625	1087.336791992188	141.8916778564453	624.5860595703125	514.8888549804688	269.4165649414062	588.5486450195312	664.020751953125	267.5560302734375	609.4229736328125	58.28814697265625	528.7977294921875	575.8285522460938	298.2873840332031	432.183349609375	772.98095703125	30.57271957397461	357.7294311523438	757.3567504882812	51.09908294677734	440.8821411132812	647.8980712890625	35.60504531860352	409.2999572753906	634.2915649414062	86.6016845703125	616.5117797851562	921.4773559570312	547.4140014648438	93.49204254150391	942.15869140625	813.4258422851562	166.8144378662109	933.874755859375	25.3864803314209	61.94107437133789	940.1255493164062	413.3299560546875	81.39876556396484	868.1354370117188	62.82301712036133	-158.0029296875	830.9139404296875	43.15494918823242	-101.1117401123047	948.9241333007812	40.09305572509766	-71.35164642333984	885.1519165039062	23.7274227142334	120.474739074707	
409	4.08	809.9137573242188	1100.127197265625	357.5355529785156	674.6907958984375	1103.702270507812	344.1246948242188	736.9651489257812	1135.3740234375	358.2010803222656	763.65478515625	1347.022827148438	154.6692657470703	722.6881713867188	1282.436279296875	406.7033996582031	706.9961547851562	1576.3017578125	385.8250732421875	753.4060668945312	1478.606323242188	199.9766235351562	784.5272827148438	1387.464233398438	443.5927734375	604.5948486328125	1554.306518554688	368.8811645507812	557.1815185546875	1544.573974609375	269.4371032714844	489.807373046875	1410.683959960938	255.3838958740234	489.2451477050781	1197.663818359375	189.1915588378906	533.2384033203125	1170.7880859375	262.4821166992188	581.5413208007812	983.7052612304688	34.43597030639648	546.6703491210938	931.56201171875	99.40667724609375	502.0458374023438	1090.808349609375	142.3115692138672	625.4467163085938	806.1024780273438	-32.73147583007812	563.3790893554688	869.2059936523438	51.08522415161133	584.4102172851562	903.2725219726562	-5.461268901824951	895.4512329101562	1561.596069335938	364.8814086914062	954.0128173828125	1487.705200195312	393.6400451660156	979.0634765625	1195.398559570312	401.9883728027344	885.2088623046875	1190.64306640625	374.8727416992188	1025.348022460938	955.147705078125	260.4885864257812	1029.48876953125	938.4797973632812	341.7542724609375	1004.249755859375	1123.67578125	383.8116455078125	1031.07177734375	761.0635986328125	229.8329772949219	1045.731811523438	849.0177001953125	235.1416320800781	1049.3466796875	839.8658447265625	307.9006958007812	793.236083984375	1763.117309570312	344.5462951660156	671.6022338867188	1807.532470703125	165.8684692382812	800.8168334960938	1822.969604492188	176.2657165527344	659.8992309570312	1753.203735351562	340.9099731445312	572.26806640625	1020.752075195312	239.076171875	939.12451171875	1013.504272460938	232.5280151367188	892.3819580078125	1090.172607421875	153.9244079589844	625.9515991210938	1088.16357421875	135.5460052490234	626.2711791992188	515.116943359375	261.3940124511719	590.9591064453125	664.5333862304688	260.3775939941406	609.7872924804688	61.14213562011719	527.6363525390625	577.1608276367188	301.0608520507812	427.8737182617188	772.9178466796875	30.47781372070312	357.2515563964844	757.2096557617188	52.1090087890625	439.7578735351562	648.0204467773438	35.64491653442383	408.8328552246094	634.9642944335938	91.69087982177734	614.5191650390625	922.8208618164062	547.9510498046875	85.99765014648438	944.6716918945312	814.763427734375	157.3940887451172	934.5264282226562	25.38815307617188	60.99985504150391	941.2720336914062	413.6756286621094	74.7451171875	867.3494873046875	58.5162467956543	-160.2573699951172	831.12158203125	40.59452056884766	-102.2105102539062	949.2872314453125	38.98580932617188	-72.83085632324219	886.0963134765625	24.45748519897461	119.7930068969727	
